<svg version="1.0" xmlns="http://www.w3.org/2000/svg"
 width="2048.000000pt" height="2048.000000pt" viewBox="0 0 2048.000000 2048.000000"
 preserveAspectRatio="xMidYMid meet" fill="none">

<g transform="translate(0.000000,2048.000000) scale(0.100000,-0.100000)"
fill="#000000" stroke="none">
<path d="M0 10240 l0 -10240 10240 0 10240 0 0 10240 0 10240 -10240 0 -10240
0 0 -10240z m15121 7241 c158 -41 308 -131 447 -270 89 -88 179 -198 170 -206
-8 -8 -919 -136 -942 -133 -32 5 -120 184 -135 275 -44 256 167 409 460 334z
m-1575 -352 c162 -22 352 -103 499 -211 125 -92 303 -284 405 -436 l15 -22
175 30 c1129 195 2183 256 2945 169 879 -99 1470 -372 1772 -819 57 -85 153
-294 153 -334 0 -11 -7 -12 -32 -6 -184 49 -545 52 -768 5 -69 -14 -186 -46
-260 -71 -208 -70 -478 -209 -466 -239 2 -7 47 -147 98 -310 l93 -297 150 6
c83 4 176 9 208 12 54 6 58 8 52 28 -31 96 -36 127 -32 188 9 147 114 238 273
238 192 0 338 -147 361 -361 l6 -61 51 6 c110 12 328 27 333 23 6 -7 -24 -292
-48 -442 -58 -366 -165 -800 -320 -1300 -70 -229 -113 -311 -213 -410 -126
-126 -214 -165 -571 -254 -758 -188 -1501 -229 -2242 -124 -67 9 -124 15 -126
12 -2 -2 4 -78 13 -169 52 -489 55 -1061 9 -1470 -95 -844 -388 -1521 -841
-1945 -131 -121 -362 -277 -345 -230 4 9 98 217 208 462 l202 445 -38 219
c-21 121 -42 216 -45 212 -4 -5 -29 -55 -55 -113 -84 -186 -202 -399 -380
-685 -473 -761 -888 -1804 -1139 -2863 -155 -651 -250 -1282 -307 -2027 -5
-77 -13 -330 -16 -562 l-6 -423 -512 0 c-401 0 -514 3 -518 12 -2 7 -253 1301
-558 2875 -305 1573 -557 2859 -561 2857 -12 -8 -106 -305 -138 -436 -119
-492 -130 -955 -34 -1476 14 -75 27 -147 30 -158 6 -24 -11 -31 -281 -104
-820 -221 -1707 -320 -2510 -280 -404 20 -448 -7 402 245 l743 220 80 139 c44
77 79 140 77 142 -1 1 -63 -8 -139 -21 -564 -96 -1111 -139 -1758 -139 -829 0
-1433 72 -2030 244 -75 21 -143 42 -152 45 -12 5 -35 -30 -107 -165 -345 -644
-676 -1116 -1070 -1522 -408 -422 -872 -724 -1258 -818 l-92 -23 -6 -41 c-2
-23 -30 -365 -60 -761 -30 -396 -58 -746 -61 -777 l-6 -58 -574 0 -574 0 -4
23 c-8 35 -306 2460 -306 2482 0 12 17 32 43 50 203 144 414 403 542 670 137
283 194 545 195 885 0 470 -121 921 -392 1464 -131 263 -339 604 -516 847
l-40 55 52 85 c238 385 616 876 1025 1329 241 266 683 693 986 951 1160 987
2501 1673 3875 1983 440 99 850 159 1350 198 212 16 932 16 1155 0 744 -54
1414 -171 2146 -373 l145 -40 105 45 c57 26 140 66 183 90 l79 43 -34 11 c-19
6 -302 93 -629 193 -327 99 -597 183 -600 186 -3 3 27 2 65 -1 86 -9 276 8
409 35 578 117 1141 549 1634 1254 95 136 272 423 272 440 -1 6 -28 30 -61 55
-154 114 -321 312 -385 456 -131 296 -14 581 281 685 104 36 201 45 321 28z
m2209 -8900 c-318 -1434 -449 -2565 -432 -3749 7 -460 40 -1094 73 -1412 l6
-58 -445 0 -445 0 -32 88 c-216 590 -342 1174 -381 1772 -14 216 -6 648 16
860 47 464 159 971 300 1366 l26 70 72 23 c289 93 630 353 894 680 125 156
325 465 384 594 7 15 14 25 16 23 2 -2 -21 -118 -52 -257z m-9610 -1784 c176
-29 461 -78 634 -107 277 -46 314 -55 322 -73 9 -21 799 -3230 799 -3246 0 -5
-243 -8 -597 -7 l-596 3 -277 710 -277 710 -539 497 c-297 274 -539 504 -539
512 0 7 158 250 350 539 324 486 352 525 375 521 14 -2 169 -29 345 -59z"/>
<path d="M15180 15770 c-126 -18 -276 -52 -395 -91 -132 -44 -383 -163 -485
-231 l-65 -43 305 -3 305 -2 29 -56 c59 -112 202 -213 363 -255 108 -28 278
-28 386 0 159 42 303 145 361 259 l26 52 318 0 317 0 -70 42 c-240 141 -546
247 -895 308 -139 25 -391 35 -500 20z"/>
</g>
</svg>
